<svg id="canvas" width="534.522" height="157.162" viewBox="287.493 253.924 534.522 157.162" preserveAspectRatio="xMidYMid meet" class="h-full w-full max-w-4xl text-primary transition-opacity duration-300 opacity-100" xmlns="http://www.w3.org/2000/svg"><g id="canvas-strokes"><path d="M 307.69,261.16 C 306.42 263.03, 306.14 266.15, 305.13 271.34 C 304.12 276.53, 303.63 279.78, 302.63 287.12 C 301.63 294.45, 301.19 299.46, 300.13 308.03 C 299.08 316.60, 298.55 321.10, 297.34 329.97 C 296.14 338.84, 295.47 344.08, 294.10 352.38 C 292.73 360.69, 290.64 367.55, 290.50 371.48 C 290.37 375.41, 292.12 375.75, 293.43 372.03 C 294.74 368.31, 295.65 361.20, 297.06 352.88 C 298.46 344.55, 299.16 339.29, 300.47 330.41 C 301.77 321.53, 302.35 317.03, 303.57 308.48 C 304.79 299.94, 305.40 294.97, 306.58 287.71 C 307.77 280.44, 308.49 277.31, 309.47 272.18 C 310.45 267.04, 311.84 264.22, 311.48 262.01 C 311.13 259.81, 308.97 259.30, 307.69 261.16" style="stroke: black; fill: black;"/><path d="M 360.03,257.70 C 358.87 258.90, 358.92 260.59, 357.87 264.24 C 356.82 267.89, 356.13 270.37, 354.77 275.97 C 353.40 281.57, 352.57 285.47, 351.04 292.23 C 349.52 298.99, 348.55 302.58, 347.15 309.77 C 345.74 316.97, 345.18 320.91, 344.02 328.20 C 342.86 335.48, 342.12 339.01, 341.33 346.21 C 340.54 353.41, 340.39 357.40, 340.05 364.21 C 339.72 371.02, 339.65 374.35, 339.66 380.25 C 339.67 386.15, 339.92 389.23, 340.09 393.72 C 340.26 398.21, 340.03 399.94, 340.51 402.68 C 340.98 405.42, 341.57 406.49, 342.45 407.41 C 343.34 408.34, 344.13 408.32, 344.91 407.29 C 345.69 406.26, 346.27 405.05, 346.35 402.26 C 346.43 399.47, 345.78 397.76, 345.30 393.34 C 344.82 388.92, 344.25 385.94, 343.96 380.14 C 343.67 374.34, 343.66 371.07, 343.86 364.36 C 344.05 357.65, 344.18 353.71, 344.92 346.59 C 345.66 339.48, 346.36 335.98, 347.55 328.77 C 348.75 321.56, 349.34 317.65, 350.89 310.55 C 352.45 303.45, 353.54 299.93, 355.33 293.29 C 357.11 286.65, 358.17 282.88, 359.83 277.35 C 361.50 271.82, 362.89 269.46, 363.65 265.65 C 364.42 261.83, 364.38 259.85, 363.65 258.27 C 362.93 256.68, 361.19 256.51, 360.03 257.70" style="stroke: black; fill: black;"/><path d="M 316.27,328.45 C 316.94 327.40, 316.00 326.77, 315.67 327.09 C 315.34 327.41, 314.30 329.15, 314.61 330.03 C 314.93 330.92, 315.65 331.44, 317.25 331.53 C 318.85 331.61, 320.31 331.33, 322.61 330.46 C 324.91 329.59, 326.28 328.33, 328.76 327.19 C 331.23 326.06, 332.52 325.69, 334.99 324.77 C 337.47 323.85, 338.95 323.40, 341.13 322.61 C 343.32 321.82, 344.42 321.49, 345.91 320.82 C 347.41 320.15, 347.71 319.32, 348.60 319.27 C 349.49 319.22, 349.37 319.94, 350.35 320.56 C 351.33 321.18, 352.23 321.49, 353.49 322.35 C 354.74 323.22, 354.83 324.18, 356.61 324.90 C 358.40 325.61, 360.61 326.56, 362.41 325.95 C 364.22 325.34, 365.58 323.83, 365.63 321.85 C 365.69 319.86, 364.33 317.68, 362.69 316.04 C 361.04 314.41, 359.42 314.28, 357.40 313.67 C 355.38 313.06, 354.41 313.22, 352.61 313.01 C 350.80 312.79, 350.14 312.57, 348.38 312.61 C 346.63 312.64, 345.73 312.90, 343.81 313.17 C 341.89 313.45, 341.08 313.53, 338.78 313.96 C 336.47 314.39, 335.01 314.76, 332.29 315.33 C 329.57 315.90, 328.05 316.09, 325.17 316.81 C 322.29 317.52, 320.34 317.82, 317.89 318.89 C 315.44 319.96, 314.34 320.68, 312.93 322.16 C 311.51 323.64, 311.35 324.52, 310.80 326.28 C 310.26 328.04, 309.90 329.75, 310.20 330.96 C 310.51 332.18, 311.11 332.85, 312.32 332.35 C 313.53 331.84, 315.59 329.50, 316.27 328.45" style="stroke: black; fill: black;"/><path d="M 388.91,325.70 C 390.71 326.27, 393.46 326.04, 394.88 324.90 C 396.31 323.76, 396.44 321.35, 396.02 319.98 C 395.61 318.62, 394.10 317.37, 392.81 318.06 C 391.51 318.75, 390.61 320.48, 389.53 323.44 C 388.46 326.41, 388.25 328.70, 387.43 332.87 C 386.62 337.04, 385.73 339.68, 385.47 344.29 C 385.22 348.90, 385.55 351.81, 386.16 355.93 C 386.78 360.06, 386.93 361.97, 388.53 364.91 C 390.13 367.86, 391.34 369.19, 394.17 370.67 C 397.00 372.15, 399.19 372.80, 402.68 372.31 C 406.17 371.82, 407.98 370.57, 411.62 368.22 C 415.26 365.88, 417.28 364.07, 420.89 360.59 C 424.50 357.10, 426.37 355.12, 429.65 350.78 C 432.93 346.43, 434.51 343.61, 437.29 338.86 C 440.08 334.11, 441.60 331.00, 443.57 327.02 C 445.54 323.03, 446.75 321.36, 447.16 318.93 C 447.57 316.50, 446.89 315.28, 445.63 314.86 C 444.36 314.44, 442.38 314.57, 440.85 316.84 C 439.31 319.11, 438.82 321.84, 437.95 326.22 C 437.08 330.61, 436.66 333.68, 436.51 338.74 C 436.36 343.81, 436.08 346.94, 437.22 351.55 C 438.36 356.17, 439.35 358.53, 442.22 361.82 C 445.10 365.11, 447.27 366.48, 451.61 368.00 C 455.94 369.52, 458.71 369.92, 463.90 369.40 C 469.10 368.88, 472.12 367.67, 477.59 365.40 C 483.06 363.13, 485.84 361.46, 491.25 358.05 C 496.66 354.64, 499.60 352.40, 504.63 348.33 C 509.66 344.26, 512.39 341.60, 516.41 337.70 C 520.43 333.81, 522.13 331.91, 524.73 328.85 C 527.33 325.79, 528.59 324.79, 529.41 322.40 C 530.23 320.01, 530.10 318.43, 528.82 316.89 C 527.54 315.34, 525.59 314.49, 523.00 314.69 C 520.41 314.88, 518.43 315.68, 515.88 317.86 C 513.32 320.05, 512.54 322.17, 510.24 325.61 C 507.94 329.05, 506.33 331.17, 504.36 335.08 C 502.38 338.98, 501.56 341.23, 500.35 345.13 C 499.15 349.04, 498.62 350.93, 498.32 354.61 C 498.03 358.29, 497.76 360.34, 498.90 363.55 C 500.04 366.75, 501.32 368.66, 504.03 370.65 C 506.73 372.64, 509.01 373.28, 512.43 373.50 C 515.86 373.72, 517.83 373.24, 521.16 371.74 C 524.49 370.24, 526.47 368.78, 529.09 365.99 C 531.70 363.20, 532.91 361.45, 534.25 357.80 C 535.59 354.14, 535.91 351.69, 535.78 347.71 C 535.66 343.73, 535.09 341.41, 533.64 337.89 C 532.19 334.37, 530.73 332.75, 528.53 330.10 C 526.32 327.45, 524.70 326.16, 522.62 324.62 C 520.55 323.08, 519.41 322.88, 518.15 322.42 C 516.88 321.96, 516.42 322.12, 516.29 322.32 C 516.17 322.51, 516.33 323.07, 517.54 323.39 C 518.75 323.72, 519.93 324.07, 522.35 323.95 C 524.77 323.83, 526.34 323.33, 529.63 322.78 C 532.92 322.23, 535.56 321.91, 538.81 321.20 C 542.05 320.48, 543.57 320.31, 545.86 319.21 C 548.15 318.10, 549.54 316.98, 550.24 315.66 C 550.94 314.34, 550.56 313.39, 549.37 312.61 C 548.18 311.83, 546.68 311.88, 544.29 311.76 C 541.90 311.64, 540.60 311.76, 537.42 312.01 C 534.23 312.27, 531.69 312.73, 528.36 313.04 C 525.04 313.35, 523.58 312.90, 520.78 313.56 C 517.98 314.23, 516.19 314.66, 514.36 316.36 C 512.53 318.06, 511.88 319.85, 511.64 322.05 C 511.40 324.25, 512.11 325.48, 513.18 327.37 C 514.25 329.25, 515.16 329.79, 516.98 331.46 C 518.79 333.14, 520.36 333.81, 522.26 335.73 C 524.15 337.64, 525.29 338.60, 526.46 341.04 C 527.63 343.49, 528.02 345.16, 528.10 347.95 C 528.19 350.74, 527.87 352.55, 526.89 354.99 C 525.90 357.43, 525.07 358.40, 523.19 360.14 C 521.31 361.89, 519.61 362.72, 517.48 363.71 C 515.36 364.70, 514.37 364.97, 512.56 365.11 C 510.75 365.25, 509.69 365.20, 508.42 364.40 C 507.16 363.60, 506.79 362.95, 506.24 361.10 C 505.69 359.24, 505.51 357.91, 505.67 355.12 C 505.83 352.33, 506.03 350.49, 507.03 347.17 C 508.03 343.84, 508.71 341.81, 510.65 338.49 C 512.59 335.18, 514.35 333.25, 516.73 330.59 C 519.11 327.92, 520.71 327.01, 522.56 325.17 C 524.40 323.33, 525.11 322.71, 525.96 321.39 C 526.80 320.07, 527.11 318.95, 526.78 318.57 C 526.46 318.19, 525.65 318.15, 524.33 319.47 C 523.01 320.79, 522.45 322.20, 520.18 325.18 C 517.91 328.15, 516.64 330.39, 512.97 334.33 C 509.30 338.28, 506.65 340.93, 501.84 344.91 C 497.02 348.90, 494.11 351.07, 488.90 354.27 C 483.69 357.46, 480.88 358.94, 475.78 360.90 C 470.69 362.85, 467.88 363.71, 463.42 364.06 C 458.96 364.41, 456.86 363.87, 453.50 362.66 C 450.14 361.45, 448.72 360.50, 446.63 358.03 C 444.55 355.55, 443.76 354.05, 443.09 350.29 C 442.42 346.52, 442.78 343.68, 443.30 339.22 C 443.82 334.76, 444.67 331.97, 445.70 327.98 C 446.73 323.99, 448.41 321.94, 448.46 319.26 C 448.50 316.58, 447.34 315.20, 445.90 314.60 C 444.46 314.00, 442.85 314.29, 441.27 316.25 C 439.68 318.22, 439.69 320.42, 437.96 324.42 C 436.24 328.42, 435.15 331.62, 432.64 336.23 C 430.13 340.84, 428.56 343.51, 425.40 347.48 C 422.23 351.45, 420.31 353.16, 416.82 356.08 C 413.33 359.00, 411.07 360.40, 407.95 362.08 C 404.84 363.77, 403.41 363.95, 401.24 364.51 C 399.07 365.07, 398.31 365.45, 397.11 364.88 C 395.91 364.31, 396.03 363.68, 395.23 361.67 C 394.43 359.66, 393.68 358.20, 393.11 354.83 C 392.54 351.47, 391.92 348.82, 392.36 344.85 C 392.81 340.88, 394.02 338.74, 395.33 334.99 C 396.64 331.23, 398.24 329.37, 398.92 326.09 C 399.60 322.81, 399.79 320.72, 398.75 318.60 C 397.71 316.48, 395.89 315.96, 393.71 315.50 C 391.53 315.05, 389.40 315.01, 387.84 316.32 C 386.28 317.62, 385.68 320.16, 385.90 322.04 C 386.11 323.91, 387.12 325.13, 388.91 325.70" style="stroke: black; fill: black;"/><path d="M 686.64,325.42 C 686.08 324.06, 684.91 323.44, 683.07 322.45 C 681.24 321.47, 680.11 321.13, 677.47 320.49 C 674.82 319.84, 672.92 319.53, 669.86 319.22 C 666.81 318.91, 665.20 318.76, 662.19 318.94 C 659.19 319.12, 657.58 319.03, 654.85 320.13 C 652.13 321.23, 650.14 322.14, 648.58 324.43 C 647.01 326.71, 646.75 328.84, 647.05 331.56 C 647.35 334.29, 647.99 335.78, 650.07 338.04 C 652.15 340.31, 653.94 341.12, 657.45 342.87 C 660.96 344.62, 663.38 345.22, 667.61 346.78 C 671.83 348.35, 674.54 349.11, 678.58 350.71 C 682.62 352.31, 684.90 353.47, 687.79 354.80 C 690.67 356.12, 691.59 356.73, 693.02 357.32 C 694.44 357.91, 695.14 357.67, 694.92 357.73 C 694.71 357.79, 693.99 357.24, 691.95 357.62 C 689.91 357.99, 688.18 358.71, 684.73 359.60 C 681.27 360.49, 678.77 361.24, 674.68 362.07 C 670.60 362.89, 668.37 363.23, 664.31 363.74 C 660.25 364.25, 657.84 364.19, 654.37 364.61 C 650.90 365.04, 649.23 365.06, 646.95 365.86 C 644.68 366.66, 643.67 367.54, 642.98 368.62 C 642.28 369.70, 642.51 370.51, 643.49 371.26 C 644.47 372.01, 645.53 372.24, 647.88 372.39 C 650.22 372.54, 651.77 372.39, 655.23 372.01 C 658.69 371.62, 661.07 371.03, 665.19 370.47 C 669.32 369.90, 671.57 369.71, 675.85 369.18 C 680.12 368.64, 682.61 368.56, 686.57 367.78 C 690.53 367.00, 693.11 367.12, 695.65 365.28 C 698.20 363.44, 698.99 361.12, 699.29 358.59 C 699.59 356.05, 698.79 354.69, 697.14 352.59 C 695.50 350.49, 694.26 349.74, 691.04 348.09 C 687.83 346.45, 685.20 345.93, 681.05 344.36 C 676.90 342.78, 674.22 341.95, 670.28 340.20 C 666.34 338.46, 664.24 337.34, 661.37 335.63 C 658.49 333.93, 657.47 332.74, 655.90 331.67 C 654.33 330.60, 653.87 330.75, 653.53 330.27 C 653.18 329.79, 653.43 329.67, 654.19 329.26 C 654.96 328.84, 655.77 328.42, 657.34 328.19 C 658.90 327.97, 659.87 327.87, 662.03 328.14 C 664.20 328.41, 665.45 328.92, 668.18 329.55 C 670.91 330.18, 672.96 331.07, 675.70 331.30 C 678.43 331.54, 679.81 331.14, 681.86 330.72 C 683.90 330.30, 684.95 330.29, 685.91 329.23 C 686.86 328.17, 687.21 326.77, 686.64 325.42" style="stroke: black; fill: black;"/><path d="M 731.97,328.17 C 732.98 327.92, 732.52 326.98, 731.82 325.97 C 731.13 324.95, 730.04 323.83, 728.52 323.11 C 726.99 322.39, 726.37 321.94, 724.20 322.38 C 722.03 322.82, 720.24 323.22, 717.69 325.32 C 715.13 327.41, 713.87 329.60, 711.42 332.84 C 708.96 336.07, 707.66 337.86, 705.42 341.48 C 703.18 345.11, 701.44 347.20, 700.20 350.97 C 698.96 354.74, 698.71 357.09, 699.22 360.33 C 699.74 363.56, 700.80 364.89, 702.79 367.12 C 704.78 369.36, 706.32 370.37, 709.16 371.50 C 712.00 372.62, 713.88 372.96, 716.99 372.76 C 720.11 372.56, 721.66 371.75, 724.73 370.50 C 727.80 369.25, 729.22 368.55, 732.33 366.51 C 735.43 364.48, 737.23 362.94, 740.24 360.32 C 743.25 357.71, 744.65 356.16, 747.38 353.45 C 750.11 350.74, 752.39 349.52, 753.90 346.79 C 755.41 344.06, 755.66 341.72, 754.93 339.79 C 754.21 337.86, 752.32 337.03, 750.26 337.14 C 748.20 337.24, 746.51 338.14, 744.63 340.31 C 742.75 342.48, 741.75 344.57, 740.88 347.98 C 740.00 351.40, 739.74 353.91, 740.26 357.40 C 740.78 360.88, 741.52 362.68, 743.49 365.39 C 745.46 368.10, 747.23 369.43, 750.10 370.94 C 752.98 372.45, 754.79 372.57, 757.85 372.93 C 760.92 373.30, 762.34 373.15, 765.43 372.76 C 768.52 372.37, 770.37 372.14, 773.30 370.98 C 776.23 369.82, 777.50 368.72, 780.10 366.95 C 782.71 365.17, 783.89 364.24, 786.32 362.10 C 788.76 359.97, 790.56 358.49, 792.29 356.29 C 794.02 354.09, 794.30 352.51, 794.98 351.11 C 795.65 349.72, 795.50 349.38, 795.66 349.31 C 795.82 349.25, 795.69 349.44, 795.77 350.78 C 795.85 352.11, 795.34 353.54, 796.06 356.00 C 796.78 358.47, 798.09 360.35, 799.39 363.10 C 800.68 365.85, 801.13 367.19, 802.54 369.75 C 803.95 372.32, 804.77 373.98, 806.44 375.92 C 808.11 377.86, 808.92 378.84, 810.89 379.45 C 812.86 380.06, 814.67 379.76, 816.27 378.97 C 817.88 378.17, 818.67 376.68, 818.94 375.50 C 819.21 374.32, 818.75 373.54, 817.63 373.06 C 816.50 372.59, 814.41 372.79, 813.29 373.13 C 812.18 373.48, 811.94 374.39, 812.05 374.80 C 812.16 375.21, 813.37 375.25, 813.83 375.21 C 814.29 375.17, 814.28 375.35, 814.33 374.60 C 814.38 373.85, 814.62 373.30, 814.07 371.45 C 813.51 369.60, 812.62 367.81, 811.57 365.33 C 810.51 362.86, 809.84 361.80, 808.79 359.07 C 807.74 356.34, 807.70 354.27, 806.31 351.70 C 804.92 349.13, 803.92 347.78, 801.84 346.23 C 799.76 344.68, 798.30 344.15, 795.91 343.96 C 793.52 343.77, 792.13 344.14, 789.89 345.28 C 787.65 346.43, 786.68 347.66, 784.72 349.69 C 782.76 351.72, 782.04 353.48, 780.10 355.45 C 778.15 357.42, 777.02 358.12, 774.99 359.53 C 772.97 360.94, 772.12 361.68, 769.98 362.51 C 767.84 363.33, 766.56 363.37, 764.31 363.64 C 762.05 363.91, 760.82 363.97, 758.70 363.86 C 756.58 363.74, 755.46 363.66, 753.70 363.05 C 751.93 362.45, 750.66 362.00, 749.87 360.84 C 749.08 359.68, 749.29 359.17, 749.72 357.24 C 750.16 355.32, 751.20 353.74, 752.04 351.22 C 752.89 348.70, 753.77 346.88, 753.95 344.64 C 754.12 342.40, 753.56 341.21, 752.91 340.02 C 752.26 338.83, 752.00 338.41, 750.69 338.68 C 749.39 338.96, 748.20 339.51, 746.39 341.41 C 744.58 343.30, 743.88 345.52, 741.66 348.15 C 739.44 350.79, 738.01 352.29, 735.31 354.59 C 732.60 356.89, 730.88 358.12, 728.14 359.65 C 725.40 361.18, 724.00 361.42, 721.61 362.22 C 719.23 363.03, 718.21 363.44, 716.22 363.68 C 714.24 363.91, 713.39 363.68, 711.69 363.39 C 709.98 363.10, 708.72 363.00, 707.69 362.22 C 706.67 361.44, 706.61 361.24, 706.56 359.50 C 706.52 357.75, 706.43 356.28, 707.47 353.50 C 708.51 350.73, 709.71 348.59, 711.77 345.62 C 713.82 342.64, 715.21 340.85, 717.75 338.63 C 720.28 336.41, 722.30 335.88, 724.44 334.51 C 726.59 333.15, 727.48 332.80, 728.48 331.80 C 729.49 330.79, 729.71 330.41, 729.48 329.49 C 729.26 328.58, 727.90 327.69, 727.37 327.23 C 726.83 326.77, 725.89 327.00, 726.81 327.19 C 727.73 327.38, 730.97 328.41, 731.97 328.17" style="stroke: black; fill: black;"/><path d="M 814.96,285.24 C 816.32 285.48, 817.56 285.26, 817.73 284.84 C 817.90 284.41, 817.20 283.61, 815.83 283.13 C 814.46 282.66, 812.30 282.58, 810.88 282.47 C 809.46 282.35, 808.73 282.34, 808.74 282.57 C 808.75 282.81, 809.68 283.11, 810.92 283.64 C 812.17 284.18, 813.60 285.00, 814.96 285.24" style="stroke: black; fill: black;"/></g></svg>